<svg width="52.000000" height="52.000000" viewBox="0 0 52 52" fill="none" xmlns="http://www.w3.org/2000/svg" xmlns:xlink="http://www.w3.org/1999/xlink">
	<desc>
			Created with Pixso.
	</desc>
	<defs>
		<clipPath id="clip16_556">
			<rect rx="-0.500000" width="51.000000" height="51.000000" transform="translate(0.500000 0.500000)" fill="white" fill-opacity="0"/>
		</clipPath>
	</defs>
	<rect rx="-0.500000" width="51.000000" height="51.000000" transform="translate(0.500000 0.500000)" fill="#FFFFFF" fill-opacity="0"/>
	<g clip-path="url(#clip16_556)">
		<path d="M4.33 50.91C2.53 50.91 1.08 49.46 1.08 47.66L1.08 19.5C1.08 17.7 2.53 16.25 4.33 16.25L32.5 16.25C34.29 16.25 35.75 17.7 35.75 19.5L35.75 47.66C35.75 49.46 34.29 50.91 32.5 50.91L4.33 50.91Z" stroke="#FFFFFF" stroke-opacity="1.000000" stroke-width="1.500000"/>
		<path d="M7.58 27.08L29.25 27.08" stroke="#FFFFFF" stroke-opacity="1.000000" stroke-width="1.500000" stroke-linecap="square"/>
		<path d="M7.58 33.58L29.25 33.58" stroke="#FFFFFF" stroke-opacity="1.000000" stroke-width="1.500000" stroke-linecap="square"/>
		<path d="M7.58 40.08L29.25 40.08" stroke="#FFFFFF" stroke-opacity="1.000000" stroke-width="1.500000" stroke-linecap="square"/>
		<path d="M16.25 16.25L16.25 4.33C16.25 2.53 17.7 1.08 19.5 1.08L47.66 1.08C49.46 1.08 50.91 2.53 50.91 4.33L50.91 32.5C50.91 34.29 49.46 35.75 47.66 35.75L35.74 35.75" stroke="#FFFFFF" stroke-opacity="1.000000" stroke-width="1.500000" stroke-linecap="square"/>
		<path d="M22.75 11.91L44.41 11.91" stroke="#FFFFFF" stroke-opacity="1.000000" stroke-width="1.500000" stroke-linecap="square"/>
		<path d="M35.75 18.41L44.41 18.41" stroke="#FFFFFF" stroke-opacity="1.000000" stroke-width="1.500000" stroke-linecap="square"/>
		<path d="M35.75 24.91L44.41 24.91" stroke="#FFFFFF" stroke-opacity="1.000000" stroke-width="1.500000" stroke-linecap="square"/>
		<path d="M7.58 1.08L11.91 3.25L9.75 7.58" stroke="#FFFFFF" stroke-opacity="1.000000" stroke-width="1.500000" stroke-linecap="square"/>
		<path d="M1.08 14.08C1.1 8.35 5.79 4.35 11.17 3.36" stroke="#FFFFFF" stroke-opacity="1.000000" stroke-width="1.500000" stroke-linecap="square"/>
		<path d="M44.41 50.91L40.08 48.75L42.25 44.41" stroke="#FFFFFF" stroke-opacity="1.000000" stroke-width="1.500000" stroke-linecap="square"/>
		<path d="M50.91 37.91C50.89 43.57 46.31 47.55 41 48.6" stroke="#FFFFFF" stroke-opacity="1.000000" stroke-width="1.500000" stroke-linecap="square"/>
	</g>
</svg>
