<svg width="58.000000" height="58.000000" viewBox="0 0 58 58" fill="none" xmlns="http://www.w3.org/2000/svg" xmlns:xlink="http://www.w3.org/1999/xlink">
	<desc>
			Created with Pixso.
	</desc>
	<defs>
		<clipPath id="clip162_3112">
			<rect rx="-0.500000" width="57.000000" height="57.000000" transform="translate(0.500000 0.500000)" fill="white" fill-opacity="0"/>
		</clipPath>
	</defs>
	<rect rx="-0.500000" width="57.000000" height="57.000000" transform="translate(0.500000 0.500000)" fill="#FFFFFF" fill-opacity="0"/>
	<g clip-path="url(#clip162_3112)">
		<path d="M6.04 1.2L6.04 56.79" stroke="#FFFFFF" stroke-opacity="1.000000" stroke-width="1.500000" stroke-linecap="square"/>
		<path d="M1.2 51.95L56.79 51.95" stroke="#FFFFFF" stroke-opacity="1.000000" stroke-width="1.500000" stroke-linecap="square"/>
		<path d="M50.14 26.92L36.85 38.32" stroke="#FFFFFF" stroke-opacity="1.000000" stroke-width="1.500000" stroke-linecap="square"/>
		<path d="M18.83 31.91L6.04 44.7" stroke="#FFFFFF" stroke-opacity="1.000000" stroke-width="1.500000" stroke-linecap="square"/>
		<path d="M33.06 38.55L22.51 31.52" stroke="#FFFFFF" stroke-opacity="1.000000" stroke-width="1.500000" stroke-linecap="square"/>
		<path d="M49.89 7.22L37.1 14.52" stroke="#FFFFFF" stroke-opacity="1.000000" stroke-width="1.500000" stroke-linecap="square"/>
		<path d="M19.17 14.02L6.04 32.62" stroke="#FFFFFF" stroke-opacity="1.000000" stroke-width="1.500000" stroke-linecap="square"/>
		<path d="M32.74 15.13L22.84 12.65" stroke="#FFFFFF" stroke-opacity="1.000000" stroke-width="1.500000" stroke-linecap="square"/>
		<path d="M20.54 32.62C19.2 32.62 18.12 31.54 18.12 30.2C18.12 28.87 19.2 27.79 20.54 27.79C21.87 27.79 22.95 28.87 22.95 30.2C22.95 31.54 21.87 32.62 20.54 32.62Z" stroke="#FFFFFF" stroke-opacity="1.000000" stroke-width="1.500000"/>
		<path d="M35.04 42.29C33.7 42.29 32.62 41.2 32.62 39.87C32.62 38.54 33.7 37.45 35.04 37.45C36.37 37.45 37.45 38.54 37.45 39.87C37.45 41.2 36.37 42.29 35.04 42.29Z" stroke="#FFFFFF" stroke-opacity="1.000000" stroke-width="1.500000"/>
		<path d="M51.95 27.79C50.62 27.79 49.54 26.7 49.54 25.37C49.54 24.04 50.62 22.95 51.95 22.95C53.29 22.95 54.37 24.04 54.37 25.37C54.37 26.7 53.29 27.79 51.95 27.79Z" stroke="#FFFFFF" stroke-opacity="1.000000" stroke-width="1.500000"/>
		<path d="M20.54 14.5C19.2 14.5 18.12 13.41 18.12 12.08C18.12 10.74 19.2 9.66 20.54 9.66C21.87 9.66 22.95 10.74 22.95 12.08C22.95 13.41 21.87 14.5 20.54 14.5Z" stroke="#FFFFFF" stroke-opacity="1.000000" stroke-width="1.500000"/>
		<path d="M35.04 18.12C33.7 18.12 32.62 17.04 32.62 15.7C32.62 14.37 33.7 13.29 35.04 13.29C36.37 13.29 37.45 14.37 37.45 15.7C37.45 17.04 36.37 18.12 35.04 18.12Z" stroke="#FFFFFF" stroke-opacity="1.000000" stroke-width="1.500000"/>
		<path d="M51.95 8.45C50.62 8.45 49.54 7.37 49.54 6.04C49.54 4.7 50.62 3.62 51.95 3.62C53.29 3.62 54.37 4.7 54.37 6.04C54.37 7.37 53.29 8.45 51.95 8.45Z" stroke="#FFFFFF" stroke-opacity="1.000000" stroke-width="1.500000"/>
	</g>
</svg>
