<svg width="58.000000" height="58.000000" viewBox="0 0 58 58" fill="none" xmlns="http://www.w3.org/2000/svg" xmlns:xlink="http://www.w3.org/1999/xlink">
	<desc>
			Created with Pixso.
	</desc>
	<defs>
		<clipPath id="clip162_3132">
			<rect id="windows-share-connection-interaction-social-media-comminication-network-sharing 1" rx="-0.500000" width="57.000000" height="57.000000" transform="translate(0.500000 0.500000)" fill="white" fill-opacity="0"/>
		</clipPath>
	</defs>
	<rect id="windows-share-connection-interaction-social-media-comminication-network-sharing 1" rx="-0.500000" width="57.000000" height="57.000000" transform="translate(0.500000 0.500000)" fill="#FFFFFF" fill-opacity="0"/>
	<g clip-path="url(#clip162_3132)">
		<path id="Vector" d="M47.36 57.03C42.02 57.03 37.7 52.7 37.7 47.36C37.7 42.02 42.02 37.7 47.36 37.7C52.7 37.7 57.03 42.02 57.03 47.36C57.03 52.7 52.7 57.03 47.36 57.03Z" stroke="#FFFFFF" stroke-opacity="1.000000" stroke-width="1.500000"/>
		<path id="Vector" d="M10.63 39.63C5.29 39.63 0.96 35.3 0.96 29.96C0.96 24.62 5.29 20.29 10.63 20.29C15.97 20.29 20.3 24.62 20.3 29.96C20.3 35.3 15.97 39.63 10.63 39.63Z" stroke="#FFFFFF" stroke-opacity="1.000000" stroke-width="1.500000"/>
		<path id="Vector" d="M39.63 20.29C34.29 20.29 29.96 15.97 29.96 10.63C29.96 5.29 34.29 0.96 39.63 0.96C44.97 0.96 49.3 5.29 49.3 10.63C49.3 15.97 44.97 20.29 39.63 20.29Z" stroke="#FFFFFF" stroke-opacity="1.000000" stroke-width="1.500000"/>
		<path id="Vector" d="M50.45 20.29C52.18 23.45 53.16 27.07 53.16 30.93C53.16 33.68 52.66 36.32 51.75 38.75" stroke="#FFFFFF" stroke-opacity="1.000000" stroke-width="1.500000" stroke-linecap="square"/>
		<path id="Vector" d="M14.1 16.4C17.98 11.91 23.63 8.99 29.96 8.72" stroke="#FFFFFF" stroke-opacity="1.000000" stroke-width="1.500000" stroke-linecap="square"/>
		<path id="Vector" d="M30.93 53.16C21.73 53.16 13.84 47.58 10.46 39.61" stroke="#FFFFFF" stroke-opacity="1.000000" stroke-width="1.500000" stroke-linecap="square"/>
	</g>
</svg>
