<svg width="58.000000" height="58.000000" viewBox="0 0 58 58" fill="none" xmlns="http://www.w3.org/2000/svg" xmlns:xlink="http://www.w3.org/1999/xlink">
	<desc>
			Created with Pixso.
	</desc>
	<defs>
		<clipPath id="clip162_3145">
			<rect rx="-0.500000" width="57.000000" height="57.000000" transform="translate(0.500000 0.500000)" fill="white" fill-opacity="0"/>
		</clipPath>
	</defs>
	<rect rx="-0.500000" width="57.000000" height="57.000000" transform="translate(0.500000 0.500000)" fill="#FFFFFF" fill-opacity="0"/>
	<g clip-path="url(#clip162_3145)">
		<path d="M44.7 49.54L36.25 49.54C34.24 49.54 32.62 47.91 32.62 45.91L32.62 12.08C32.62 10.08 34.24 8.45 36.25 8.45L44.7 8.45" stroke="#FFFFFF" stroke-opacity="1.000000" stroke-width="1.500000" stroke-linecap="square"/>
		<path d="M20.54 29L44.7 29" stroke="#FFFFFF" stroke-opacity="1.000000" stroke-width="1.500000" stroke-linecap="square"/>
		<path d="M51.95 13.29C53.29 13.29 54.37 12.2 54.37 10.87L54.37 6.04C54.37 4.7 53.29 3.62 51.95 3.62L47.12 3.62C45.79 3.62 44.7 4.7 44.7 6.04L44.7 10.87C44.7 12.2 45.79 13.29 47.12 13.29L51.95 13.29Z" stroke="#FFFFFF" stroke-opacity="1.000000" stroke-width="1.500000"/>
		<path d="M51.95 33.83C53.29 33.83 54.37 32.75 54.37 31.41L54.37 26.58C54.37 25.24 53.29 24.16 51.95 24.16L47.12 24.16C45.79 24.16 44.7 25.24 44.7 26.58L44.7 31.41C44.7 32.75 45.79 33.83 47.12 33.83L51.95 33.83Z" stroke="#FFFFFF" stroke-opacity="1.000000" stroke-width="1.500000"/>
		<path d="M51.95 54.37C53.29 54.37 54.37 53.29 54.37 51.95L54.37 47.12C54.37 45.79 53.29 44.7 51.95 44.7L47.12 44.7C45.79 44.7 44.7 45.79 44.7 47.12L44.7 51.95C44.7 53.29 45.79 54.37 47.12 54.37L51.95 54.37Z" stroke="#FFFFFF" stroke-opacity="1.000000" stroke-width="1.500000"/>
		<rect x="4.833496" y="21.750000" rx="7.250000" width="14.500000" height="14.500000" stroke="#FFFFFF" stroke-opacity="1.000000" stroke-width="1.500000"/>
	</g>
</svg>
