<svg width="58.000000" height="58.000000" viewBox="0 0 58 58" fill="none" xmlns="http://www.w3.org/2000/svg" xmlns:xlink="http://www.w3.org/1999/xlink">
	<desc>
			Created with Pixso.
	</desc>
	<defs>
		<clipPath id="clip162_3155">
			<rect rx="-0.500000" width="57.000000" height="57.000000" transform="translate(0.500000 0.500000)" fill="white" fill-opacity="0"/>
		</clipPath>
	</defs>
	<rect rx="-0.500000" width="57.000000" height="57.000000" transform="translate(0.500000 0.500000)" fill="#FFFFFF" fill-opacity="0"/>
	<g clip-path="url(#clip162_3155)">
		<path d="M2.41 51.95C1.74 51.95 1.2 51.41 1.2 50.75L1.2 38.66C1.2 37.99 1.74 37.45 2.41 37.45L19.33 37.45C20 37.45 20.54 37.99 20.54 38.66L20.54 50.75C20.54 51.41 20 51.95 19.33 51.95L2.41 51.95Z" stroke="#FFFFFF" stroke-opacity="1.000000" stroke-width="1.500000"/>
		<path d="M10.87 51.95L10.87 56.79" stroke="#FFFFFF" stroke-opacity="1.000000" stroke-width="1.500000" stroke-linecap="square"/>
		<path d="M7.25 56.79L14.5 56.79" stroke="#FFFFFF" stroke-opacity="1.000000" stroke-width="1.500000" stroke-linecap="square"/>
		<path d="M38.66 51.95C37.99 51.95 37.45 51.41 37.45 50.75L37.45 38.66C37.45 37.99 37.99 37.45 38.66 37.45L55.58 37.45C56.25 37.45 56.79 37.99 56.79 38.66L56.79 50.75C56.79 51.41 56.25 51.95 55.58 51.95L38.66 51.95Z" stroke="#FFFFFF" stroke-opacity="1.000000" stroke-width="1.500000"/>
		<path d="M47.12 51.95L47.12 56.79" stroke="#FFFFFF" stroke-opacity="1.000000" stroke-width="1.500000" stroke-linecap="square"/>
		<path d="M43.5 56.79L50.75 56.79" stroke="#FFFFFF" stroke-opacity="1.000000" stroke-width="1.500000" stroke-linecap="square"/>
		<path d="M29 18.12L29 25.37" stroke="#FFFFFF" stroke-opacity="1.000000" stroke-width="1.500000" stroke-linecap="square"/>
		<path d="M10.87 37.45L10.87 27.79L26.58 27.79" stroke="#FFFFFF" stroke-opacity="1.000000" stroke-width="1.500000" stroke-linecap="square"/>
		<path d="M26.63 8.39C25.55 6.94 23.84 6 21.9 6C18.64 6 16 8.68 16 12C16 15.31 18.64 18 21.9 18L37.27 18C39.88 18 42 15.85 42 13.2C42 10.54 39.88 8.39 37.27 8.39" stroke="#FFFFFF" stroke-opacity="1.000000" stroke-width="1.500000"/>
		<path d="M38.55 8.59C38.02 4.43 34.51 1.2 30.2 1.2C26.8 1.2 23.89 3.22 22.55 6.12" stroke="#FFFFFF" stroke-opacity="1.000000" stroke-width="1.500000"/>
		<path d="M31.41 27.79L47.12 27.79L47.12 37.45" stroke="#FFFFFF" stroke-opacity="1.000000" stroke-width="1.500000" stroke-linecap="square"/>
		<path d="M31.41 25.37L31.41 30.2L26.58 30.2L26.58 25.37L31.41 25.37Z" stroke="#FFFFFF" stroke-opacity="1.000000" stroke-width="1.500000"/>
	</g>
</svg>
